<svg width="110" height="110" fill="none" xmlns="http://www.w3.org/2000/svg"><path d="M73.3.238a5.58 5.58 0 100 11.161 5.58 5.58 0 000-11.16zm0 7.442a1.86 1.86 0 110-3.721 1.86 1.86 0 010 3.72zM56.558 9.54a9.3 9.3 0 00-9.301 9.3 9.301 9.301 0 1018.603 0c-.007-5.133-4.168-9.295-9.302-9.3zm0 14.882a5.581 5.581 0 110-11.163 5.581 5.581 0 010 11.163zM30.515 13.26a7.442 7.442 0 100 14.883 7.442 7.442 0 000-14.883zm0 11.162a3.72 3.72 0 11-.001-7.44 3.72 3.72 0 010 7.44zM19.352.238a5.58 5.58 0 10.001 11.161 5.58 5.58 0 000-11.16zm0 7.442a1.86 1.86 0 110-3.721 1.86 1.86 0 010 3.72zM64.513 60.002l3.52-1.198 12.032 35.364-3.521 1.197-12.031-35.363zM54.995 63.229l3.52-1.198 12.033 35.363-3.521 1.198L54.995 63.23zM74.029 56.757l3.52-1.197 12.028 35.363-3.52 1.197L74.03 56.757z" fill="#F5F4F4"/><path d="M109.437 68.99l-8.791-25.844c-1.863-5.48-7.815-8.411-13.294-6.548h-.003l-5.041 1.716-.325-.96c-2.37-6.981-9.95-10.72-16.932-8.35a13.337 13.337 0 00-6.322 4.543 10.322 10.322 0 00-8.57 3.534 9.055 9.055 0 00-1.228-.309 10.493 10.493 0 00-4.145.112c-5.327-5.1-13.777-4.915-18.877.412a13.35 13.35 0 00-3.507 6.934l-.176 1-5.245-.918c-5.702-.997-11.131 2.815-12.13 8.516v.002L.157 79.718c-.989 5.701 2.823 11.127 8.52 12.13l5.244.916-.167.957a4.733 4.733 0 00.268 9.272l39.624 6.929c.27.048.542.072.814.072a4.735 4.735 0 004.29-2.775 4.527 4.527 0 002.495-.138L99.33 94.124a4.735 4.735 0 00-1.166-9.203l-.313-.916 5.039-1.715c5.476-1.87 8.403-7.82 6.547-13.3zm-30.37-28.676l.653 1.92-12.8 4.354-.659-1.919 12.807-4.355zm-30.956 1.42a6.65 6.65 0 012.438-.348c.68.034 1.322-.31 1.672-.893l.007.002a6.734 6.734 0 017.042-3.13 1.86 1.86 0 001.928-.839 9.517 9.517 0 015.033-3.99 9.64 9.64 0 0111.447 4.316l-14.384 4.895a1.86 1.86 0 00-1.155 2.36l2.775 8.162a2.45 2.45 0 01-4.635 1.577l-.93-2.72a1.86 1.86 0 10-3.52 1.2 2.45 2.45 0 01-4.64 1.573l-1.86-5.441a1.861 1.861 0 00-2.36-1.161l-3.401 1.157a6.745 6.745 0 014.543-6.72zm-1.042 11.615l-1.92.653-.65-1.92 1.917-.651.653 1.919zm-9.847-16.31l.005.001a9.525 9.525 0 015.602 3.162c.098.106.208.2.327.28a10.544 10.544 0 00-2.989 5.023l-13.58-2.432a9.643 9.643 0 0110.635-6.035zm-11.47 9.682l14.132 2.526c.074.703.22 1.396.436 2.069L25.404 48.71l.348-1.99zM9.307 88.182a6.771 6.771 0 01-5.486-7.824l4.704-26.89a6.755 6.755 0 017.814-5.495c.004 0 .007 0 .011.002l5.242.915-.348 1.998-3.828-.67a6.17 6.17 0 00-7.142 5.015l-.002.008L6.064 79.3a6.175 6.175 0 005.023 7.14l3.829.67-.348 1.998-5.26-.927zm11.295-33.629l-5.05 28.886-3.832-.67a2.449 2.449 0 01-1.99-2.834h.002l4.207-24.061a2.458 2.458 0 012.835-1.991l3.828.67zm34.86 50.88c-.098.551-.624.92-1.175.823v.003l-39.625-6.932a1.014 1.014 0 11.35-1.995 1.86 1.86 0 002.153-1.513l7.601-43.458 16.91 2.958 12.964 38.12-1.516 8.666a1.857 1.857 0 001.514 2.152c.552.097.92.623.823 1.176zm43.304-16.117c.18.529-.101 1.104-.63 1.284v.001L60.05 103.56a1.014 1.014 0 11-.657-1.919 1.86 1.86 0 001.163-2.36L46.349 57.513l2.217-.754a6.148 6.148 0 009.512.505 6.172 6.172 0 0010.36-6.194l-.327-.959 12.801-4.357 14.21 41.765a1.862 1.862 0 002.36 1.165l.002-.002a1.014 1.014 0 011.282.633zM85.36 47.273l3.679-1.252a2.449 2.449 0 013.107 1.528l.001.005 7.868 23.122a2.453 2.453 0 01-1.53 3.108l-3.68 1.252-9.445-27.763zm16.334 31.488l-5.038 1.715-.66-1.92 3.68-1.252a6.177 6.177 0 003.853-7.83L95.661 46.35a6.182 6.182 0 00-7.828-3.854l-3.68 1.252-.65-1.918 5.052-1.707a6.762 6.762 0 018.58 4.223l8.783 25.839a6.768 6.768 0 01-4.223 8.576z" fill="#F2F2F2"/><path d="M33.05 100.069l6.437-36.794 3.665.642-6.437 36.794-3.664-.642zM42.973 101.812l3.608-21.883 3.67.605-3.61 21.883-3.668-.605zM23.163 98.329l6.436-36.798 3.665.64-6.437 36.798-3.664-.64z" fill="#F5F4F4"/></svg>