<svg width="110" height="110" fill="none" xmlns="http://www.w3.org/2000/svg"><path d="M75.004 68.983a1.832 1.832 0 10-3.421 1.313c1.67 4.361 1.792 7.697.33 9.163-1.775 1.77-6.193 1.217-11.823-1.477a78.39 78.39 0 01-20.285-15.138C25.45 48.487 19.527 34.4 23.19 30.737a5.006 5.006 0 014.146-.968 1.833 1.833 0 00.355-3.647 8.44 8.44 0 00-7.092 2.016c-6.715 6.713 3.55 24.224 16.615 37.29a81.961 81.961 0 0021.295 15.85 36.1 36.1 0 004.42 1.769l-13.02 4.937a51.872 51.872 0 01-32.805-40.398 1.833 1.833 0 00-3.621.568 55.29 55.29 0 001.144 5.457 55.63 55.63 0 0030.33 36.246l-21.431 8.11a1.8 1.8 0 00-.367-.437 25.534 25.534 0 01-9.456-17.745l-.85-10.298a1.81 1.81 0 00-1.928-1.685l-.057.005a1.833 1.833 0 00-1.68 1.985l.864 10.293a29.192 29.192 0 009.697 19.307L4.46 105.18 7.21 93.898a1.833 1.833 0 10-3.563-.869L.072 107.69a1.832 1.832 0 002.43 2.15l67.807-25.657c.108-.053.21-.116.304-.19a7.12 7.12 0 003.89-1.941c1.817-1.816 3.38-5.56.5-13.069z" fill="#fff"/><path d="M92.298 64.257a60.35 60.35 0 00-31.05-3.015l-6.548 1.1a1.832 1.832 0 00.605 3.614l6.546-1.09a56.64 56.64 0 0129.16 2.833c.207.073.425.11.644.108a1.833 1.833 0 00.643-3.55zM98.813 35.864a1.833 1.833 0 00-2.443-.866L57.885 53.324a1.833 1.833 0 001.576 3.31l38.485-18.327a1.833 1.833 0 00.867-2.443zM44.527 12.438a1.833 1.833 0 10-3.577.795 51.264 51.264 0 01-2.736 30.988l-2.665 6.394a1.832 1.832 0 001.688 2.53c.74 0 1.407-.444 1.692-1.126l2.666-6.387a54.906 54.906 0 002.932-33.194zM100.818 65.974a5.498 5.498 0 100 10.996 5.498 5.498 0 000-10.996zm0 7.33a1.833 1.833 0 110-3.664 1.833 1.833 0 010 3.665zM56.835 14.66a5.498 5.498 0 100 10.997 5.498 5.498 0 000-10.996zm0 7.331a1.833 1.833 0 110-3.665 1.833 1.833 0 010 3.665zM40.342 7.33a3.665 3.665 0 100-7.33 3.665 3.665 0 000 7.33zM91.655 9.163c-1.012 0-1.833.82-1.833 1.833v1.832a1.833 1.833 0 003.666 0v-1.832c0-1.012-.82-1.833-1.833-1.833zM91.655 0c-1.012 0-1.833.82-1.833 1.833v1.832a1.833 1.833 0 003.666 0V1.833C93.488.82 92.668 0 91.655 0zM97.153 5.498H95.32a1.833 1.833 0 000 3.665h1.833a1.833 1.833 0 000-3.665zM87.99 5.498h-1.833a1.833 1.833 0 000 3.665h1.833a1.833 1.833 0 000-3.665zM78.827 20.12h-9.202c-1.012 0-1.832.82-1.832 1.833v9.201c0 1.013.82 1.833 1.832 1.833h9.202c1.012 0 1.832-.82 1.832-1.833v-9.201c0-1.012-.82-1.833-1.832-1.833zm-1.833 9.202h-5.536v-5.537h5.536v5.537zM65.476 35.424a1.832 1.832 0 00-2.536-.133L44.614 51.784a1.833 1.833 0 002.452 2.724l18.326-16.494a1.832 1.832 0 00.084-2.59zM98.986 42.15c-1.013 0-1.833.82-1.833 1.833v1.833a1.833 1.833 0 003.665 0v-1.833c0-1.012-.82-1.833-1.832-1.833zM106.761 41.835l-1.295-1.296a1.833 1.833 0 00-2.592 2.592l1.296 1.295a1.832 1.832 0 002.591-2.591zM108.149 34.82h-1.833a1.833 1.833 0 000 3.665h1.833a1.832 1.832 0 000-3.665zM106.716 28.878a1.832 1.832 0 00-2.546 0l-1.296 1.296a1.833 1.833 0 002.592 2.591l1.295-1.295a1.832 1.832 0 00-.045-2.592zM98.986 25.657c-1.013 0-1.833.82-1.833 1.832v1.833a1.833 1.833 0 003.665 0v-1.833c0-1.012-.82-1.832-1.832-1.832zM95.097 30.174L93.8 28.878a1.833 1.833 0 00-2.591 2.592l1.295 1.296a1.832 1.832 0 002.592-2.592zM21.926 7.924a1.833 1.833 0 00-1.48-1.246l-5.378-.782-2.399-4.873a1.908 1.908 0 00-3.288 0l-2.41 4.873-5.378.782a1.833 1.833 0 00-1.02 3.125l3.891 3.793-.916 5.357a1.833 1.833 0 002.661 1.939l4.81-2.537 4.811 2.53a1.833 1.833 0 002.66-1.932l-.917-5.357 3.893-3.793a1.832 1.832 0 00.46-1.879zm-7.607 3.72a1.832 1.832 0 00-.528 1.62l.454 2.649-2.373-1.252a1.833 1.833 0 00-1.704 0l-2.383 1.25.455-2.648a1.832 1.832 0 00-.519-1.618L5.795 9.77l2.66-.387a1.832 1.832 0 001.379-1.002l1.186-2.407 1.187 2.407c.267.54.782.915 1.378 1.002l2.658.387-1.924 1.875zM103.791 91.86h-.008l-.755-1.132a27.655 27.655 0 00-18.401-11.9 1.833 1.833 0 00-.605 3.614 23.977 23.977 0 0113.985 7.796 10.812 10.812 0 00-7.33 5.034 7.33 7.33 0 0012.8 7.148 10.64 10.64 0 001.19-4.705 8.957 8.957 0 01.401 9.517 1.833 1.833 0 103.2 1.785c3.355-5.994 1.379-13.567-4.477-17.157zm-3.51 8.771a3.665 3.665 0 01-6.418-3.542l.017-.03a6.867 6.867 0 014.963-3.229c.318-.009.634.065.916.213 1.547.863 1.629 4.605.522 6.588z" fill="#fff"/></svg>