<svg width="110" height="110" fill="none" xmlns="http://www.w3.org/2000/svg"><path d="M91.282 2.722c0-.16-.16-.32-.32-.32l-2.402-.16L87.599.16c0-.16-.16-.16-.32-.16s-.32.16-.32.16l-1.121 2.082-2.242.32c-.16 0-.32.16-.32.32s0 .32.16.48l1.441 1.441-.48 2.242c0 .16 0 .32.16.32s.32.16.48 0l2.082-1.12 2.081 1.12h.32c.16-.16.16-.16.16-.32l-.32-2.242 1.761-1.6c.16-.16.16-.32.16-.481zM13.625 19.054l-1.921-1.12-.32-2.243c0-.16-.16-.32-.32-.32s-.32 0-.481.16l-1.601 1.762-2.242-.32c-.16 0-.32 0-.32.16-.16.16-.16.32 0 .48l.96 1.761-1.12 2.082v.48c0 .16.32.16.32.16l2.242-.48 1.6 1.6s.16.161.321.161h.16c.16 0 .32-.16.32-.32l.32-2.242 2.082-1.12c.16 0 .16-.16.16-.32 0-.161-.16-.321-.16-.321zM106.973 88.064l-1.922-1.28-.16-2.403c0-.16-.16-.32-.16-.32h-.48l-1.761 1.441-2.242-.64c-.16 0-.32 0-.48.16-.16.16-.16.32 0 .48l.8 2.082-1.28 1.921c-.16.16-.16.32 0 .48 0 .16.16.16.32.16l2.401-.16 1.441 1.762c0 .16.16.16.32.16h.161c.16 0 .32-.16.32-.32l.64-2.242 2.242-.8c.16 0 .32-.16.32-.32-.32 0-.32-.161-.48-.161zM10.583 70.772c0-.16 0-.32-.16-.32L8.5 69.17l-.16-2.401c0-.16-.16-.32-.16-.32h-.48l-1.762 1.44-2.241-.48c-.16 0-.32 0-.48.16-.16.16-.16.32 0 .48l.8 2.082-1.28 1.921c-.16.16-.16.32 0 .48 0 .16.16.16.32.16l2.401-.16L6.9 74.295c0 .16.16.16.32.16h.16c.16 0 .321-.16.321-.32l.64-2.242 2.242-.8v-.32zM22.592 104.076c-.32 0-.32-.16-.48-.16l-2.402-.481-.961-2.081c0-.16-.16-.16-.32-.16s-.32.16-.32.16l-1.121 2.081-2.242.32c-.16 0-.32.161-.32.321s0 .32.16.48l1.601 1.601-.48 2.242c0 .16 0 .32.16.32.16.16.32.16.48 0l2.082-1.121 2.081 1.121h.32c.16-.16.16-.16.16-.32l-.32-2.242 1.762-1.601c.16-.16.16-.32.16-.48zM54.615 0c-.96 0-1.601.64-1.601 1.601v44.993c0 .96.8 1.601 1.601 1.601.96 0 1.601-.64 1.601-1.601V1.6c0-.96-.64-1.601-1.601-1.601zM54.615 70.772c-.96 0-1.601.64-1.601 1.6V108.4c0 .961.64 1.601 1.601 1.601.96 0 1.601-.64 1.601-1.601V72.373c0-.961-.64-1.602-1.601-1.602zM50.772 40.67l-6.725-18.734c-.32-.8-1.28-1.28-2.081-.96-.8.32-1.121 1.28-.8 2.08L47.89 41.79c.16.64.8 1.121 1.441 1.121.16 0 .32 0 .48-.16.801-.32 1.281-1.28.961-2.081zM41.806 16.492l-2.402-5.764c-.32-.8-1.28-1.281-2.082-.96-.8.32-1.28 1.28-.96 2.08l2.402 5.925c.32.64.8.96 1.44.96.16 0 .32 0 .641-.16.8-.32 1.281-1.28.96-2.081zM67.905 89.665l-8.647-24.498c-.32-.8-1.28-1.28-2.081-.96-.8.32-1.281 1.28-.96 2.081l8.806 24.498c.16.64.8 1.12 1.44 1.12.16 0 .32 0 .481-.16.8-.32 1.281-1.28.96-2.08zM52.373 51.397l-28.82-35.065c-.641-.64-1.602-.8-2.242-.16-.64.64-.8 1.6-.16 2.241L49.97 53.32c.32.32.801.64 1.282.64.32 0 .64-.16.96-.32.64-.64.8-1.601.16-2.242zM88.08 96.39L65.662 68.85c-.64-.64-1.601-.8-2.242-.16-.64.64-.8 1.601-.16 2.242l22.416 27.38c.32.32.8.64 1.281.64.32 0 .64-.16.961-.32.64-.64.8-1.601.16-2.242zM40.685 46.114l-22.096-13.29c-.8-.48-1.761-.16-2.242.48-.48.96-.32 1.922.48 2.402l22.097 13.29c.32.16.48.16.8.16.48 0 1.121-.32 1.441-.8.48-.801.16-1.762-.48-2.242zM94.164 78.777L58.138 57.322c-.801-.48-1.762-.16-2.242.48-.48.8-.16 1.761.48 2.242l35.866 21.455c.32.16.48.16.8.16.481 0 1.122-.32 1.442-.8.64-.64.48-1.601-.32-2.082zM40.205 52.038L4.498 44.993c-.801-.16-1.762.32-1.922 1.28-.16.961.32 1.762 1.281 1.922l35.706 7.045h.32c.8 0 1.441-.48 1.602-1.28.16-.801-.32-1.762-1.281-1.922zM102.009 64.687l-31.062-6.084c-.961-.16-1.762.32-1.922 1.28-.16.801.32 1.762 1.281 1.922l31.063 6.084h.32c.8 0 1.441-.48 1.601-1.28.161-.801-.32-1.762-1.281-1.922zM85.998 50.277l-21.776 3.202c-.8.16-1.441.96-1.28 1.761.16.8.8 1.441 1.6 1.441h.16l21.776-3.202c.8-.32 1.281-1.12 1.281-1.922-.16-.8-.96-1.44-1.761-1.28zM48.21 57.482c-.16-.8-.96-1.441-1.761-1.281L20.83 59.883c-.8.16-1.44.961-1.28 1.762.16.8.8 1.44 1.6 1.44h.16l25.62-3.842c.8-.16 1.44-.96 1.28-1.761zM95.765 50.437c-.16-.8-.96-1.441-1.761-1.281l-1.922.32c-.8.16-1.44.96-1.28 1.761.16.8.8 1.441 1.6 1.441 0-.16 0-.16.16-.16l1.922-.32c.8-.16 1.44-.96 1.281-1.761zM17.148 62.125c-.16-.8-.961-1.44-1.761-1.28l-1.922.16c-.8.16-1.441.96-1.28 1.76.16.801.8 1.442 1.6 1.442h.16l1.922-.32c.8-.16 1.44-.961 1.28-1.762zM100.889 31.543c-.481-.8-1.441-1.12-2.242-.64L68.705 47.073c-.8.48-1.12 1.441-.64 2.242.32.48.8.8 1.44.8.321 0 .481 0 .802-.16l29.941-16.171c.801-.48 1.121-1.441.641-2.242zM42.766 63.246c-.48-.8-1.44-1.12-2.241-.64L10.583 78.776c-.8.48-1.121 1.441-.64 2.242.32.48.8.8 1.44.8.32 0 .48 0 .8-.16l29.943-16.171c.8-.48 1.12-1.441.64-2.242zM85.197 22.576c-.64-.64-1.601-.48-2.241.16l-26.1 28.982c-.64.64-.48 1.6.16 2.241.32.16.641.32 1.122.32.48 0 .8-.16 1.12-.48l26.1-28.98c.64-.641.48-1.602-.16-2.243zM53.334 57.962c-.64-.64-1.601-.48-2.242.16L24.834 86.943c-.64.64-.48 1.601.16 2.242.32.32.641.48 1.121.48s.8-.16 1.121-.48l26.1-28.981c.64-.64.64-1.601 0-2.242zM23.873 90.946c-.64-.8-1.601-.64-2.242 0l-2.882 3.202c-.64.64-.48 1.602.16 2.242.32.32.64.48 1.12.48.481 0 .802-.16 1.122-.48l2.882-3.202c.64-.64.48-1.601-.16-2.242zM92.403 14.57c-.64-.64-1.602-.48-2.242.16l-2.882 3.043c-.64.64-.48 1.601.16 2.242.32.32.64.48 1.12.48.481 0 .801-.16 1.122-.48l2.882-3.203c.64-.64.48-1.601-.16-2.241zM74.63 8.006c-.801-.32-1.762 0-2.082.8L61.82 35.066c-.48.96 0 1.76.8 2.081.161.16.481.16.641.16.64 0 1.281-.32 1.441-.96l10.728-26.26c.32-.8 0-1.76-.8-2.081zM51.733 65.808c-.8-.32-1.761 0-2.082.8l-13.13 31.703c-.32.801 0 1.762.801 2.082.16.16.48.16.64.16.641 0 1.282-.32 1.442-.96l13.13-31.704c.48-.8 0-1.6-.801-2.081z" fill="#F2F2F2"/></svg>