<svg width="110" height="110" fill="none" xmlns="http://www.w3.org/2000/svg"><path d="M24.063 68.75a1.719 1.719 0 100-3.437 1.719 1.719 0 000 3.437z" fill="#F2F2F2"/><path d="M91.781 55.86a1.718 1.718 0 10-1.375 3.149 6.876 6.876 0 01-2.75 13.178H84.22v2.579a11.19 11.19 0 01-10.371 11.141H36.152a11.19 11.19 0 01-10.37-11.141v-2.579h-3.438a6.875 6.875 0 110-13.75v1.72a1.718 1.718 0 103.437 0V53.28a1.718 1.718 0 10-3.437 0V55a10.313 10.313 0 100 20.625h.025A14.638 14.638 0 0035.98 89.341h12.144v5.19a6.875 6.875 0 0013.75 0v-5.187h12.088l.056-.004A14.637 14.637 0 0087.63 75.625h.025a10.314 10.314 0 004.125-19.766zM58.437 94.53a3.438 3.438 0 01-6.874 0v-5.188h6.874v5.188z" fill="#F2F2F2"/><path d="M59.203 70.757a7.558 7.558 0 01-8.406 0 1.719 1.719 0 10-1.906 2.86 10.985 10.985 0 0012.219 0 1.718 1.718 0 00-1.907-2.86zM30.938 65.313a1.719 1.719 0 003.437 0 1.719 1.719 0 013.438 0 1.719 1.719 0 003.437 0 5.156 5.156 0 10-10.313 0zM70.469 67.031a1.718 1.718 0 001.719-1.719 1.719 1.719 0 013.437 0 1.719 1.719 0 003.438 0 5.156 5.156 0 10-10.313 0 1.719 1.719 0 001.719 1.72zM68.75 49.844a1.721 1.721 0 00-1.719-1.719H44.72a1.719 1.719 0 000 3.438H67.03a1.721 1.721 0 001.719-1.72zM16.365 45.92a15.668 15.668 0 004.058 2.832c2.776 1.371 6.177 2.22 10.4 2.596a1.72 1.72 0 10.303-3.425c-5.046-.438-8.885-1.663-11.412-3.635a10.201 10.201 0 01-3.096-3.9c-.762-1.677-1.15-3.701-1.15-6.013v-6.69a19.32 19.32 0 0010.73 3.253h9.896a1.719 1.719 0 00.004-3.438h-9.9a15.774 15.774 0 01-11.232-4.654 1.709 1.709 0 00-1.873-.371 1.713 1.713 0 00-1.062 1.587v10.313c0 2.804.49 5.304 1.457 7.434a13.537 13.537 0 002.877 4.112zM37.845 51.563a1.719 1.719 0 100-3.438 1.719 1.719 0 000 3.438zM42.97 92.935h-6.998l-.122.017a13.81 13.81 0 00-11.788 13.61v1.719a1.721 1.721 0 001.72 1.719 1.72 1.72 0 001.718-1.719v-1.719a10.356 10.356 0 018.72-10.19h6.75a1.718 1.718 0 100-3.437zM74.15 92.952l-.121-.017h-7a1.719 1.719 0 000 3.437h6.75a10.356 10.356 0 018.721 10.19v1.719A1.721 1.721 0 0084.22 110a1.72 1.72 0 001.719-1.719v-1.719a13.81 13.81 0 00-11.788-13.61z" fill="#F2F2F2"/><path d="M42.252 30.718l41.967 23.57v5.868a1.719 1.719 0 103.437 0v-43.14A8.598 8.598 0 0089.854.943a1.69 1.69 0 00-.782-.191 1.72 1.72 0 00-.786 3.25 5.156 5.156 0 11-7.5 4.36 1.718 1.718 0 00-3.434-.15 8.653 8.653 0 00.25 2.488L42.348 27.67a1.718 1.718 0 00-.096 3.047zm36.846-16.924c.235.309.49.601.764.875a8.52 8.52 0 004.357 2.347v9.52L69.63 18.351l9.467-4.558zM54.829 25.477l3.473 1.948c.256.143.545.219.838.219h.002a1.719 1.719 0 00.84-3.219l-1.371-.769 7.237-3.484 18.37 10.305v7.544l-12.243-6.869a1.72 1.72 0 00-1.68 3l13.924 7.81v8.383L46.812 29.336l8.017-3.86z" fill="#F2F2F2"/><path d="M65.978 27.79a1.72 1.72 0 10-1.68 3 1.72 1.72 0 001.68-3zM82.483 4.368a1.719 1.719 0 100-3.437 1.719 1.719 0 000 3.437zM85.938 68.75a1.719 1.719 0 100-3.437 1.719 1.719 0 000 3.437z" fill="#F2F2F2"/></svg>